<svg id="visual" viewBox="0 0 900 600" width="900" height="600" xmlns="http://www.w3.org/2000/svg" xmlns:xlink="http://www.w3.org/1999/xlink" version="1.1"><path d="M0 86L13.7 89.3C27.3 92.7 54.7 99.3 82 111.7C109.3 124 136.7 142 163.8 143.2C191 144.3 218 128.7 245.2 119.2C272.3 109.7 299.7 106.3 327 99.7C354.3 93 381.7 83 409 88.3C436.3 93.7 463.7 114.3 491 123.5C518.3 132.7 545.7 130.3 573 146.7C600.3 163 627.7 198 654.8 215.5C682 233 709 233 736.2 208C763.3 183 790.7 133 818 128.8C845.3 124.7 872.7 166.3 886.3 187.2L900 208L900 0L886.3 0C872.7 0 845.3 0 818 0C790.7 0 763.3 0 736.2 0C709 0 682 0 654.8 0C627.7 0 600.3 0 573 0C545.7 0 518.3 0 491 0C463.7 0 436.3 0 409 0C381.7 0 354.3 0 327 0C299.7 0 272.3 0 245.2 0C218 0 191 0 163.8 0C136.7 0 109.3 0 82 0C54.7 0 27.3 0 13.7 0L0 0Z" fill="#067854" stroke-linecap="round" stroke-linejoin="miter"></path></svg>